<svg viewBox="-6 0 512 512.00002" xmlns="http://www.w3.org/2000/svg"><path d="m69.222656 269.171875c4.089844 0 8.113282-.671875 11.960938-1.996094 3.917968-1.347656 6-5.613281 4.648437-9.53125-1.34375-3.914062-5.605469-6-9.53125-4.652343-2.269531.78125-4.652343 1.179687-7.078125 1.179687-11.984375 0-21.734375-9.75-21.734375-21.730469 0-11.984375 9.75-21.734375 21.734375-21.734375 11.980469 0 21.730469 9.75 21.730469 21.734375 0 1.042969-1.859375 11.148438 6.140625 11.589844 4.132812.230469 7.898438-2.257812 8.488281-6.355469.246094-1.722656.371094-3.480469.371094-5.234375 0-20.253906-16.476563-36.734375-36.730469-36.734375s-36.734375 16.480469-36.734375 36.734375 16.480469 36.730469 36.734375 36.730469zm0 0"/><path d="m480.648438 423.222656v-65.285156c0-15.863281-3.632813-31.027344-10.800782-45.0625-1.882812-3.691406-6.398437-5.15625-10.089844-3.273438-3.6875 1.886719-5.152343 6.402344-3.269531 10.09375 6.078125 11.902344 9.160157 24.773438 9.160157 38.242188v61.726562c-.0625 0-.125-.003906-.1875-.003906h-125.972657c-2.816406-8.824218-8.234375-29.019531-7.796875-52.648437.761719-40.980469 18.183594-72.339844 51.773438-93.261719 22.097656.527344 42.578125 9.585938 58.214844 25.335938 4.597656 4.632812 9.144531 1.546874 10.605468.125 2.964844-2.894532 3.019532-7.644532.125-10.605469-18.835937-19.285157-44.050781-29.902344-70.988281-29.902344-.085937 0-6.628906-.050781-15.96875-1.851563.398437-1.53125 4.808594-8.457031-5.117187-20.714843l-20.601563-22.421875c-8.289063-9.023438-22.382813-9.621094-31.410156-1.328125l-2.835938 2.605469c-2.066406-4.289063-3.75-8.886719-5.050781-13.75 11.609375-2.898438 20.238281-13.414063 20.238281-25.910157v-45.976562c0-13.640625-10.285156-24.917969-23.503906-26.503907v-50.464843c0-28.886719-23.5-52.386719-52.386719-52.386719h-172.628906c-25.113281 0-46.3125 17.582031-51.285156 41.671875-12.113282 4.042969-20.871094 15.480469-20.871094 28.933594v160.222656c0 18.804687 7.554688 35.875 19.773438 48.359375v142.902344c-9.046876 4.203125-15.167969 13.375-15.167969 23.660156v40.15625c0 14.390625 11.703125 26.09375 26.089843 26.09375h123.941407c25.121093 0 26.089843-27.066406 26.089843-27.066406 4.921876-1.984375 9.882813-3.183594 14.832032-3.597656 17.222656 29.753906 55.890625 30.664062 60.398437 30.664062.125 0 .226563 0 .300781-.003906h212.34375c17.148438 0 31.097657-13.945313 31.097657-31.09375v-27.007813c0-13.425781-7.773438-25.0625-19.050781-30.671875zm-151.957032-199.359375 20.601563 22.421875c1.304687 1.421875 4.144531 6.003906-.4375 10.214844l-40.980469 37.65625c-2.9375 2.695312-7.519531 2.5-10.214844-.4375l-20.601562-22.417969c-1.308594-1.425781-4.03125-5.761719.433594-10.21875l40.980468-37.652343c4.832032-4.816407 8.792969-1.117188 10.21875.433593zm-61.347656 26.171875c-15.59375 14.519532-5.347656 27.039063-1.332031 31.414063l20.601562 22.421875c1.285157 1.394531 2.71875 2.566406 4.242188 3.558594l-19.859375 17.707031c-7.09375 6.324219-16.53125 8.988281-25.886719 7.300781-9.355469-1.683594-17.265625-7.472656-21.707031-15.878906l-13.230469-25.039063c-7.808594-14.78125-2.21875-33.3125 12.460937-41.3125l66.203126-36.082031c1.492187 3.96875 3.222656 7.773438 5.203124 11.382812zm38.332031-120.679687v45.976562c0 6.453125-5.25 11.707031-11.707031 11.707031h-66.546875c-6.457031 0-11.707031-5.253906-11.707031-11.707031v-45.976562c0-6.457031 5.25-11.707031 11.707031-11.707031h66.546875c6.457031 0 11.707031 5.25 11.707031 11.707031zm-233.519531-114.355469h172.628906c20.613282 0 37.386719 16.769531 37.386719 37.386719v50.261719h-54.75c-7.15625 0-13.65625 2.835937-18.457031 7.433593h-59.746094c-5.980469 0-10.84375-4.867187-10.84375-10.847656v-28.628906c0-16.816407-13.683594-30.5-30.5-30.5h-71.050781c5.089843-14.765625 19.058593-25.105469 35.332031-25.105469zm-57.15625 55.605469c0-8.546875 6.953125-15.5 15.5-15.5h77.375c8.546875 0 15.5 6.953125 15.5 15.5v28.628906c0 14.25 11.59375 25.84375 25.84375 25.84375h51.84375c-.226562 1.394531-.292969 52.1875-.191406 53.132813h-51.652344c-14.25 0-25.84375 11.59375-25.84375 25.84375v26.773437c0 29.878906-24.308594 54.1875-54.1875 54.1875s-54.1875-24.308594-54.1875-54.1875zm150.726562 415.300781c0 6.117188-4.976562 11.09375-11.089843 11.09375h-123.941407c-6.117187 0-11.089843-4.976562-11.089843-11.09375v-40.15625c0-5.238281 3.8125-9.453125 8.867187-10.863281 6.460938-1.804688 6.300782-7.726563 6.300782-7.726563v-136.351562c10.144531 5.84375 21.890624 9.203125 34.414062 9.203125 7.816406 0 15.324219-1.320313 22.339844-3.71875 10.695312 20.386719 24.046875 38.0625 39.785156 52.59375 16.0625 14.828125 26.738281 32.328125 31.742188 52.015625 1.949218 7.6875 2.609374 14.226562 2.789062 18.757812h-107.535156c-4.140625 0-7.5 3.355469-7.5 7.5 0 4.140625 3.359375 7.5 7.5 7.5h107.417968zm32.238282-19.738281c-5.769532.125-11.535156 1.078125-17.238282 2.835937v-41.492187c.476563-5.371094 3.070313-50.582031-39.238281-89.644531-14.316406-13.21875-26.523437-29.328126-36.363281-47.941407 19.921875-12.15625 33.25-34.097656 33.25-59.097656v-26.773437c0-5.976563 4.863281-10.84375 10.84375-10.84375h58.382812c4.890626 5.417968 11.964844 8.828124 19.820313 8.828124h52.246094l-64.210938 34.996094c-21.847656 11.90625-30.167969 39.492188-18.546875 61.492188l13.226563 25.039062c6.613281 12.511719 33.347656 42.125 70.84375 12.765625l30.023437-26.773437c2.523438-.972656 4.910156-2.421875 7.019532-4.359375l38.136718-35.035157c1.71875.425782 3.386719.800782 4.996094 1.128907-28.441406 23.28125-43.726562 55.910156-44.460938 95.441406-.414062 22.363281 3.890626 41.710937 7.113282 52.925781 0 0-39.648438-4.441406-75.429688 17.480469zm286.734375 14.734375c0 8.875-7.222657 16.09375-16.097657 16.09375l-212.488281.003906c-.332031.015625-31.433593.078125-45.917969-20.566406l45.667969-26.292969c17.597657-10.128906 37.625-15.480469 57.925781-15.480469h151.675782c10.605468 0 19.234375 8.628906 19.234375 19.234375zm0 0"/></svg>