<svg xmlns:dc="http://purl.org/dc/elements/1.1/" xmlns:cc="http://creativecommons.org/ns#" xmlns:rdf="http://www.w3.org/1999/02/22-rdf-syntax-ns#" xmlns:svg="http://www.w3.org/2000/svg" xmlns="http://www.w3.org/2000/svg" xmlns:sodipodi="http://sodipodi.sourceforge.net/DTD/sodipodi-0.dtd" xmlns:inkscape="http://www.inkscape.org/namespaces/inkscape" version="1.1" x="0px" y="0px" viewBox="0 0 100 125"><g transform="translate(0,-952.36218)"><path d="m 84.562498,981.36218 c -17.06241,0.01 -69.0625,0.031 -82.0625003,0.031 10e-6,11.8335 -4e-5,25.82312 0,35.97332 2.61228,0.01 5.36951,0 8.0000003,0 0,-4.3914 3.60541,-7.9941 8,-7.9941 4.39458,0 8,3.6027 8,7.9941 5.1557,0 10.65781,-10e-5 16,0 -0.002,-10.3329 0,-20.65032 0,-30.97702 -0.008,-0.4663 0.35408,-0.9119 0.8125,-0.9993 2.71094,0 5.46278,0 8.1875,0 0.5236,10e-5 0.99997,0.4761 1,0.9993 2e-5,10.3382 0,21.75552 0,30.97732 4.71724,0 9.29926,4e-4 14,0 0,-4.3914 3.60541,-7.9941 8,-7.9941 4.39458,0 8,3.6027 8,7.9941 2.7524,-10e-5 5.20955,0 8,0 0,-1.1241 9.1e-4,-2.0501 0,-3.0915 -3.52116,-0.8395 -5.50205,-3.3576 -6.90625,-6.4952 -0.25738,-0.5578 0.14303,-1.308 0.75,-1.4052 2.01504,0.1731 4.09635,0.5489 6.125,0.8432 -0.1438,-11.20112 -0.8445,-16.82362 -4.09375,-22.82692 l 4.125,0 c 1.71482,0.2794 2.49262,1.362 3,2.8417 -1e-4,1.7405 0,3.3707 0,5.1523 -0.005,1.0497 0.94954,2.0083 2,2.0083 1.05046,0 2.00511,-0.9586 2,-2.0083 l 0,-4.9963 c -0.5,-2.0395 -1.21632,-2.1072 -2.46875,-1.9677 -0.92124,-1.6815 -2.8371,-2.9978 -4.53125,-3.029 l -5.28125,0 c -0.22424,-0.3644 -0.46164,-0.7263 -0.65625,-1.03 z m -78.2500003,4.0282 c 2.71094,0 5.4627803,0 8.1875003,0 0.5236,10e-5 0.99997,0.4761 1,0.9993 l 0,11.9911 c -8e-5,0.5232 -0.47643,0.9991 -1,0.9992 l -8.0000003,0 c -0.52357,-1e-4 -0.99992,-0.476 -1,-0.9992 l 0,-11.9911 c -0.008,-0.4663 0.35408,-0.9119 0.8125,-0.9993 z m 11.0000003,0 c 2.71094,0 5.46278,0 8.1875,0 0.5236,10e-5 0.99997,0.4761 1,0.9993 l 0,11.9911 c -8e-5,0.5232 -0.47643,0.9991 -1,0.9992 l -8,0 c -0.52357,-1e-4 -0.99992,-0.476 -1,-0.9992 l 0,-11.9911 c -0.008,-0.4663 0.35408,-0.9119 0.8125,-0.9993 z m 11,0 c 4.04445,-0.001 8.12931,0 12.1875,0 0.5236,10e-5 0.99997,0.4761 1,0.9993 l 0,11.9911 c -8e-5,0.5232 -0.47643,0.9991 -1,0.9992 l -12,0 c -0.52357,-1e-4 -0.99992,-0.476 -1,-0.9992 l 0,-11.9911 c -0.008,-0.4663 0.35408,-0.9119 0.8125,-0.9993 z m 26,0 c 2.71094,0 5.46278,0 8.1875,0 0.5236,10e-5 0.99997,0.4761 1,0.9993 l 0,11.9911 c -8e-5,0.5232 -0.47643,0.9991 -1,0.9992 l -8,0 c -0.52357,-1e-4 -0.99992,-0.476 -1,-0.9992 l 0,-11.9911 c -0.008,-0.4663 0.35408,-0.9119 0.8125,-0.9993 z m 11,0 c 3.37768,0 6.79606,0 10.1875,0 0.4135,0.01 0.80828,0.2945 0.9375,0.687 0.95784,2.8714 3.0625,7.1167 3.0625,14.30192 -0.0108,0.5691 -0.59361,1.0571 -1.15625,0.9681 l -13,-1.99862 c -0.45931,-0.073 -0.83486,-0.5034 -0.84375,-0.968 l 0,-11.9911 c -0.008,-0.4663 0.35408,-0.9119 0.8125,-0.9993 z m 13,0 c 1.37837,0 2.79555,0 4.1875,0 0.4135,0.01 0.80828,0.2945 0.9375,0.687 0.95784,2.8714 3.0625,7.1405 3.0625,15.30112 2.7e-4,0.6075 -0.6613,1.1199 -1.25,0.9681 l -4,-0.9992 c -0.42559,-0.1098 -0.75022,-0.5289 -0.75,-0.9681 0,-2.77582 -0.95858,-7.74502 -2.9375,-13.67742 -0.18924,-0.5386 0.18955,-1.201 0.75,-1.3115 z m -48.8125,1.9985 0,3.9971 4,0 0,-3.9971 z m 6,0 0,3.9971 4,0 0,-3.9971 z m 9,11.9911 0,17.98672 6,0 0,-17.98672 z m 41.9375,9.27432 c 0.83232,1.7624 2.30439,3.0611 4.0625,3.4663 5.8e-4,-0.948 -9.2e-4,-2.0356 0,-2.9041 z m -67.9375,2.7168 c -3.31376,0 -6,2.6842 -6,5.9956 0,3.3113 2.68624,5.9955 6,5.9955 3.31376,0 6,-2.6842 6,-5.9955 0,-3.3114 -2.68624,-5.9956 -6,-5.9956 z m 56,0 c -3.31376,0 -6,2.6842 -6,5.9956 0,3.3113 2.68624,5.9955 6,5.9955 3.31376,0 6,-2.6842 6,-5.9955 0,-3.3114 -2.68624,-5.9956 -6,-5.9956 z" style="color:#000000;enable-background:accumulate;" fill="#000000" stroke="none" marker="none" visibility="visible" display="inline" overflow="visible"/></g></svg>