<svg xmlns="http://www.w3.org/2000/svg" xmlns:xlink="http://www.w3.org/1999/xlink" xml:space="preserve" version="1.1" style="shape-rendering:geometricPrecision;text-rendering:geometricPrecision;image-rendering:optimizeQuality;" viewBox="0 0 300 401.25" x="0px" y="0px" fill-rule="evenodd" clip-rule="evenodd"><defs><style type="text/css">
   
    .fil1 {fill:black}
    .fil0 {fill:black;fill-rule:nonzero}
   
  </style></defs><g><path class="fil0" d="M17 45c-19,120 16,214 133,263 117,-49 151,-143 132,-263 -51,27 -95,19 -132,-24 -38,43 -82,51 -133,24zm-10 -21c61,36 99,32 143,-24 43,56 81,60 142,24 24,137 -5,241 -142,297l0 0c-135,-55 -167,-162 -143,-297z"/><polygon class="fil1" points="129,85 171,85 171,139 225,139 225,181 171,181 171,236 129,236 129,181 74,181 74,139 129,139 "/></g></svg>