<svg xmlns="http://www.w3.org/2000/svg" xmlns:xlink="http://www.w3.org/1999/xlink" version="1.1" x="0px" y="0px" viewBox="25.5 251 100 125" enable-background="new 25.5 251 100 100" xml:space="preserve"><g><path d="M98.3,275.5H87.8l-6.9-20.6l-0.1-0.2l-0.2-0.2c-2.8-2.8-7.5-2.8-10.3,0l-0.2,0.2l-7,20.8H52.7c-4.4,0-7.9,3.5-7.9,7.9v58.4   c0,4.4,3.5,7.9,7.9,7.9h45.5c4.4,0,7.9-3.5,7.9-7.9v-58.4C106.2,279,102.6,275.5,98.3,275.5z M72,255.8c2-1.8,5.1-1.8,7,0l6.6,19.7   H65.4L72,255.8z M101.8,337.3c0,4.4-3.6,8-8,8H57.2c-4.4,0-8-3.6-8-8v-49.5c0-4.4,3.6-8,8-8h36.6c4.4,0,8,3.6,8,8V337.3z"/><path d="M93.8,283.1H73.9v19.5l-1.5,0.4v-20H57.2c-2.6,0-4.7,2.1-4.7,4.7v49.5c0,2.6,2.1,4.7,4.7,4.7h36.6c2.6,0,4.7-2.1,4.7-4.7   v-49.5C98.5,285.3,96.4,283.1,93.8,283.1z M67.8,298.2l3.7,7.1l7-2c1.2-0.3,2.8,1,2.8,2.5l0,10.1c0,2.5-3.7,2.5-3.7,0   c0-2.4-0.1-7.4-0.1-7.4l-7.4,2.2c-1.6,0.5-2.9-0.3-3.6-1.5l-4.1-8.1C60.7,297.6,65.9,294.8,67.8,298.2z M62,289.7   c1.8-0.5,3.7,0.5,4.2,2.3c0.5,1.8-0.5,3.7-2.3,4.3c-1.8,0.5-3.7-0.5-4.2-2.3C59.2,292.1,60.2,290.2,62,289.7z M58.2,337.8h-1.6   v-4.9h1.6V337.8z M61.8,304.4l3.2,6.3c0.7,1.3,2,2.2,3.6,2.2c0.5,0,0.9-0.1,1.4-0.2l4-1.2c2.1-0.6,3,2.2,0.8,2.8l-4.2,1.2   c-0.6,0.2-1.3,0.3-2,0.3c-2.7,0-5.1-1.6-6.2-3.8l-3.1-6.3C58.1,303.7,60.8,302.4,61.8,304.4z M61.9,337.8h-2.5v-4.9h2.5V337.8z    M64.4,337.8h-0.8v-4.9h0.8V337.8z M68.6,337.8h-2.5v-4.9h2.5V337.8z M71.2,337.8h-1.1v-4.9h1.1V337.8z M75.3,337.8h-2.7v-4.9h2.7   V337.8z M78.1,337.8h-1.6v-4.9h1.6V337.8z M81.4,337.8h-1.6v-4.9h1.6V337.8z M84.4,337.8h-1.1v-4.9h1.1V337.8z M88.5,337.8H86v-4.9   h2.5V337.8z M90.9,337.8h-0.8v-4.9h0.8V337.8z M94.7,337.8H93v-4.9h1.6V337.8z M94.2,315.8l-32.8,11.3l-0.4-1.3l32.8-11.3   c1-0.3,1.6-1.5,1.3-2.5l1.2-0.4C96.8,313.4,95.9,315.3,94.2,315.8z"/></g></svg>